# AST/ASF file generated using VICON BodyLanguage
# -----------------------------------------------
:version 1.10
:name VICON
:units
  mass 1.0
  length 0.45
  angle deg
:documentation
   .ast/.asf automatically generated from VICON data using
   VICON BodyBuilder and BodyLanguage model FoxedUp or BRILLIANT.MOD
:root
   order TX TY TZ RX RY RZ
   axis XYZ
   position 0 0 0  
   orientation 0 0 0 
:bonedata
  begin
     id 1 
     name lhipjoint
     direction 0.64773 -0.699417 0.302095 
     length 2.48597 
     axis 0 0 0  XYZ
  end
  begin
     id 2 
     name lfemur
     direction 0.34202 -0.939693 0  
     length 6.71947  
     axis 0 0 20  XYZ
    dof rx ry rz
    limits (-160.0 20.0)
           (-70.0 70.0)
           (-60.0 70.0)
  end
  begin
     id 3 
     name ltibia
     direction 0.34202 -0.939693 0   
     length 8.08777   
     axis 0 0 20   XYZ
    dof rx
    limits (-10.0 170.0)
  end
  begin
     id 4 
     name lfoot
     direction 0.0808503 -0.222134 0.971658   
     length 2.08264   
     axis -90 7.62852e-016 20   XYZ
    dof rx rz
    limits (-45.0 90.0)
           (-70.0 20.0)
  end
  begin
     id 5 
     name ltoes
     direction 1.53502e-011 -4.22007e-011 1   
     length 1.04662   
     axis -90 7.62852e-016 20   XYZ
    dof rx
    limits (-90.0 20.0)
  end
  begin
     id 6 
     name rhipjoint
     direction -0.610924 -0.726792 0.313919   
     length 2.39233  
     axis 0 0 0  XYZ 
  end
  begin
     id 7 
     name rfemur
     direction -0.34202 -0.939693 0   
     length 6.96955   
     axis 0 0 -20   XYZ
    dof rx ry rz
    limits (-160.0 20.0)
           (-70.0 70.0)
           (-70.0 60.0)
  end
  begin
     id 8 
     name rtibia
     direction -0.34202 -0.939693 0   
     length 8.19584   
     axis 0 0 -20   XYZ
    dof rx
    limits (-10.0 170.0)
 end
 begin
     id 9 
     name rfoot
     direction -0.077777 -0.213691 0.9738   
     length 2.07539  
     axis -90 -7.62852e-016 -20   XYZ
    dof rx rz
    limits (-45.0 90.0)
           (-20.0 70.0)
  end
  begin
     id 10 
     name rtoes
     direction -1.53558e-011 -4.22006e-011 1   
     length 1.04381   
     axis -90 -7.62852e-016 -20   XYZ
    dof rx
    limits (-90.0 20.0)
  end
  begin
     id 11 
     name lowerback
     direction -0.00971646 0.996074 0.0879841   
     length 1.67643   
     axis 0 0 0   XYZ
    dof rx ry rz
    limits (-20.0 45.0)
           (-30.0 30.0)
           (-30.0 30.0)
  end
  begin
     id 12 
     name upperback
     direction 0.0127391 0.991676 0.128127   
     length 1.63741   
     axis 0 0 0   XYZ
    dof rx ry rz
    limits (-20.0 45.0)
           (-30.0 30.0)
           (-30.0 30.0)
  end
  begin
     id 13 
     name thorax
     direction 0.0167583 0.996049 0.0872067   
     length 1.65931   
     axis 0 0 0   XYZ
    dof rx ry rz
    limits (-20.0 45.0)
           (-30.0 30.0)
           (-30.0 30.0)
  end
  begin
     id 14 
     name lowerneck
     direction -0.0317829 0.998312 0.0486079   
     length 1.79021   
     axis 0 0 0   XYZ
    dof rx ry rz
    limits (-20.0 45.0)
           (-30.0 30.0)
           (-30.0 30.0)
  end
  begin
     id 15 
     name upperneck
     direction 0.0896851 0.972452 -0.215159   
     length 1.78797   
     axis 0 0 0   XYZ
    dof rx ry rz
    limits (-20.0 45.0)
           (-30.0 30.0)
           (-30.0 30.0)
  end
  begin
     id 16
     name head
     direction 0.0310949 0.996503 -0.0775582  
     length 1.81549  
     axis 0 0 0   XYZ
    dof rx ry rz
    limits (-20.0 45.0)
           (-30.0 30.0)
           (-30.0 30.0)
  end
  begin
     id 17 
     name lclavicle
     direction 0.853638 0.502051 -0.138733  
     length 3.31627  
     axis 0 0 0   XYZ
    dof ry rz
    limits (-20.0 10.0)
           (0.0 20.0)
  end
  begin
     id 18 
     name lhumerus
     direction 1 -4.48962e-011 -1.41788e-018   
     length 5.54893   
     axis 180 -30 -90   XYZ
    dof rx ry rz
    limits (-60.0 90.0)
           (-90.0 90.0)
           (-90.0 90.0)
  end
  begin
     id 19
     name lradius
     direction 1 -4.48962e-011 -4.95754e-027   
     length 3.02898   
     axis 180 -30 -90   XYZ
    dof rx
    limits (-10.0 170.0)
  end
  begin
     id 20
     name lwrist
     direction 1 -4.48952e-011 -1.03764e-026   
     length 1.51449   
     axis 9.09556e-015 90 90   XYZ
    dof ry
    limits (-180.0 0.0)
 end
  begin
     id 21 
     name lhand
     direction 1 -4.4902e-011 -2.07528e-026   
     length 0.640951   
     axis 1.3242e-014 90 90   XYZ
    dof rx rz
    limits (-90.0 90.0)
           (-45.0 45.0)
  end
  begin
     id 22 
     name lfingers
     direction 1 -4.49014e-011 -4.15056e-026   
     length 0.516751   
     axis 2.64841e-014 90 90   XYZ
    dof rx
    limits (0.0 90.0)
  end
  begin
     id 23
     name lthumb
     direction 0.707107 -6.35008e-011 0.707107   
     length 0.741954   
     axis -90 45 2.85299e-015   XYZ
    dof rx rz
    limits (-45.0 45.0)
           (-45.0 45.0)
  end
  begin
     id 24 
     name rclavicle
     direction -0.888531 0.455324 -0.0565039   
     length 3.20126  
     axis 0 0 0   XYZ 
    dof ry rz
    limits (-10.0 20.0)
           (-20.0 0.0)
  end
  begin
     id 25 
     name rhumerus
     direction -1 -4.48946e-011 -8.98298e-028  
     length 5.3519   
     axis 180 30 90   XYZ
    dof rx ry rz
    limits (-90.0 60.0)
           (-90.0 90.0)
           (-90.0 90.0)
  end
  begin
     id 26 
     name rradius
     direction -1 -4.4899e-011 -3.18779e-027   
     length 3.02531   
     axis 180 30 90   XYZ
    dof rx
    limits (-10.0 170.0)
  end
  begin
     id 27 
     name rwrist
     direction -1 -4.4897e-011 -1.03764e-026   
     length 1.51266   
     axis 9.09556e-015 -90 -90   XYZ
    dof ry
    limits (-180.0 0.0)
  end
  begin
     id 28
     name rhand
     direction -1 -4.48941e-011 -2.07528e-026   
     length 0.78389   
     axis 1.3242e-014 -90 -90   XYZ
    dof rx rz
    limits (-90.0 90.0)
           (-45.0 45.0)
  end
  begin
     id 29
     name rfingers
     direction -1 -4.49012e-011 -4.15056e-026   
     length 0.631992   
     axis 2.64841e-014 -90 -90   XYZ
    dof rx
    limits (0.0 90.0)
  end
  begin
     id 30
     name rthumb
     direction -0.707107 -6.3496e-011 0.707107   
     length 0.907418   
     axis -90 -45 -2.85299e-015   XYZ
    dof rx rz
    limits (-45.0 45.0)
           (-45.0 45.0)
  end
:hierarchy
  begin
    root lhipjoint rhipjoint lowerback
    lhipjoint lfemur
    lfemur ltibia
    ltibia lfoot
    lfoot ltoes
    rhipjoint rfemur
    rfemur rtibia
    rtibia rfoot
    rfoot rtoes
    lowerback upperback
    upperback thorax
    thorax lowerneck lclavicle rclavicle
    lowerneck upperneck
    upperneck head
    lclavicle lhumerus
    lhumerus lradius
    lradius lwrist
    lwrist lhand lthumb
    lhand lfingers
    rclavicle rhumerus
    rhumerus rradius
    rradius rwrist
    rwrist rhand rthumb
    rhand rfingers
  end

#!OML:ASF E:\Style3\Style3.ASF
:FULLY-SPECIFIED
:DEGREES
585
root -1.76962 17.5254 0.838952 -298.624 77.1315 -338.605
lowerback 24.6174 -4.21002 3.13224
upperback -1.07865 -3.71761 5.06788
thorax -14.9897 -1.56691 5.45324
lowerneck -4.79108 -6.91184 -7.32036
upperneck -20.23 -7.36104 12.037
head -4.45024 -3.64978 5.12101
rclavicle 1.53859e-013 -2.78299e-014
rhumerus 9.58149 35.6086 -70.838
rradius 146.942
rwrist -52.0077
rhand 32.6923 24.4787
rfingers 7.12502
rthumb 56.1098 7.17441
lclavicle 1.53859e-013 -2.78299e-014
lhumerus -8.98034 -37.6615 82.2809
lradius 146.439
lwrist 53.4976
lhand 23.6667 10.4984
lfingers 7.12502
lthumb 47.9343 32.7418
rfemur -64.9269 11.4242 -2.99502
rtibia 32.2727
rfoot -5.48527 -18.0409
rtoes -18.3218
lfemur -49.3556 -7.19 -12.9144
ltibia 15.6166
lfoot -7.68076 22.954
ltoes -11.7231
586
root -1.76452 17.5265 0.858746 -298.798 77.1947 -338.794
lowerback 25.2612 -4.04231 2.65501
upperback -1.37761 -3.52021 5.44519
thorax -15.6779 -1.39014 6.19192
lowerneck -4.78205 -6.85569 -7.59504
upperneck -20.2473 -7.31215 11.8295
head -4.46257 -3.59371 5.10278
rclavicle 2.78299e-014 -5.48646e-014
rhumerus 8.7339 35.6468 -71.3968
rradius 146.926
rwrist -52.3297
rhand 33.0767 24.4572
rfingers 7.12502
rthumb 56.4498 7.42186
lclavicle 2.78299e-014 -5.48646e-014
lhumerus -9.3531 -36.8484 84.1906
lradius 146.405
lwrist 53.8513
lhand 24.1653 10.511
lfingers 7.12502
lthumb 48.3938 32.5379
rfemur -64.9051 11.3262 -2.68179
rtibia 32.303
rfoot -5.61801 -17.8727
rtoes -18.0971
lfemur -49.3395 -7.12379 -12.7904
ltibia 15.6312
lfoot -7.2877 22.9424
ltoes -12.6712
587
root -1.75855 17.5251 0.877696 -298.648 77.2697 -338.692
lowerback 24.9205 -4.19942 3.06564
upperback -1.22222 -3.6845 5.14441
thorax -15.3292 -1.53038 5.61317
lowerneck -4.63914 -6.78037 -7.33666
upperneck -20.5878 -7.13569 12.1531
head -4.59905 -3.54366 5.182
rclavicle -1.51076e-014 -6.75868e-015
rhumerus 8.55344 35.4126 -72.3308
rradius 146.764
rwrist -52.1751
rhand 33.3688 24.4192
rfingers 7.12502
rthumb 56.7075 7.59207
lclavicle -1.51076e-014 -6.75868e-015
lhumerus -8.61399 -36.197 83.6282
lradius 146.362
lwrist 54.3533
lhand 24.6154 10.7291
lfingers 7.12502
lthumb 48.8078 32.556
rfemur -64.9296 11.2428 -2.49576
rtibia 32.3488
rfoot -5.6752 -17.8274
rtoes -18.5433
lfemur -49.3878 -7.1814 -12.6384
ltibia 15.6662
lfoot -6.75977 22.9916
ltoes -14.7301
588
root -1.75283 17.522 0.895656 -298.344 77.2643 -338.523
lowerback 24.6647 -4.25571 3.22103
upperback -1.19163 -3.76061 4.98665
thorax -15.1624 -1.59408 5.33952
lowerneck -4.42014 -6.71352 -7.22064
upperneck -20.9005 -7.00325 12.3145
head -4.73952 -3.49998 5.23559
rclavicle 2.06736e-014 4.73108e-014
rhumerus 8.30764 35.3499 -72.6278
rradius 146.631
rwrist -51.8947
rhand 33.5678 24.4765
rfingers 7.12502
rthumb 56.8827 7.7932
lclavicle 2.06736e-014 4.73108e-014
lhumerus -8.21243 -35.7424 83.1307
lradius 146.239
lwrist 54.4232
lhand 24.7713 10.8822
lfingers 7.12502
lthumb 48.9511 32.6387
rfemur -65.0664 11.0911 -2.3617
rtibia 32.3925
rfoot -5.68591 -17.713
rtoes -19.0714
lfemur -49.5368 -7.28763 -12.5029
ltibia 15.7028
lfoot -6.61166 23.1688
ltoes -15.6196
589
root -1.74727 17.5182 0.915683 -298.629 77.2125 -339.01
lowerback 24.4821 -4.20164 3.22271
upperback -1.22941 -3.71258 4.93335
thorax -15.1095 -1.58001 5.24466
lowerneck -4.29338 -6.66282 -7.21725
upperneck -21.0935 -6.90856 12.4013
head -4.82435 -3.46036 5.27569
rclavicle -4.92986e-014 5.36719e-014
rhumerus 8.08837 35.3004 -72.3924
rradius 146.601
rwrist -51.5954
rhand 33.533 24.4029
rfingers 7.12502
rthumb 56.8522 7.69437
lclavicle -4.92986e-014 5.36719e-014
lhumerus -8.0394 -35.4891 82.5737
lradius 146.125
lwrist 54.1356
lhand 24.4292 10.9822
lfingers 7.12502
lthumb 48.6366 32.8924
rfemur -65.3172 11.0385 -2.19108
rtibia 32.4421
rfoot -5.70828 -17.5523
rtoes -19.0135
lfemur -49.6805 -7.25753 -12.2884
ltibia 15.6847
lfoot -6.83763 23.3486
ltoes -15.2228
590
root -1.74407 17.5143 0.935801 -298.887 77.1286 -339.527
lowerback 24.2094 -4.14439 3.13087
upperback -1.27699 -3.68981 4.91028
thorax -15.0061 -1.57024 5.24035
lowerneck -4.29878 -6.61231 -7.20653
upperneck -21.125 -6.83307 12.399
head -4.84115 -3.42229 5.27439
rclavicle -4.17448e-014 -4.53229e-014
rhumerus 8.09308 35.223 -71.7115
rradius 146.631
rwrist -51.3458
rhand 33.3537 24.1666
rfingers 7.12502
rthumb 56.6942 7.32865
lclavicle -4.17448e-014 -4.53229e-014
lhumerus -8.02511 -35.3877 81.7498
lradius 146.066
lwrist 53.4543
lhand 24.1986 11.2158
lfingers 7.12502
lthumb 48.4244 33.2282
rfemur -65.6505 11.0032 -2.07865
rtibia 32.4928
rfoot -5.68807 -17.4129
rtoes -19.0725
lfemur -49.9048 -7.22955 -12.0471
ltibia 15.6912
lfoot -7.4385 23.5801
ltoes -13.7255
591
root -1.73998 17.5115 0.955907 -298.722 76.9802 -339.581
lowerback 23.9598 -4.10893 2.9731
upperback -1.3143 -3.72119 4.84034
thorax -14.8986 -1.58248 5.2397
lowerneck -4.46137 -6.57404 -7.05919
upperneck -20.9878 -6.79452 12.2847
head -4.78815 -3.40191 5.20179
rclavicle 7.95139e-016 -9.54166e-015
rhumerus 8.26935 35.1425 -70.6003
rradius 146.675
rwrist -51.06
rhand 32.9237 24.0903
rfingers 7.12502
rthumb 56.3145 6.94713
lclavicle 7.95139e-016 -9.54166e-015
lhumerus -8.11112 -35.3623 80.5701
lradius 146.119
lwrist 52.6443
lhand 24.618 11.6412
lfingers 7.12502
lthumb 48.8102 33.467
rfemur -65.9349 10.9704 -2.13632
rtibia 32.5323
rfoot -5.69583 -17.3369
rtoes -19.2578
lfemur -50.1234 -7.25805 -11.9466
ltibia 15.7404
lfoot -8.0187 23.794
ltoes -12.0515
592
root -1.73499 17.5053 0.975335 -298.926 76.7968 -340.143
lowerback 23.3932 -4.05781 2.83715
upperback -1.32246 -3.74917 4.7623
thorax -14.5754 -1.60401 5.18332
lowerneck -4.39139 -6.5036 -7.01053
upperneck -21.0645 -6.68529 12.3305
head -4.83333 -3.35534 5.21408
rclavicle 2.22639e-014 4.77083e-015
rhumerus 8.5308 35.0635 -69.2645
rradius 146.797
rwrist -50.6898
rhand 32.4101 23.9055
rfingers 7.12502
rthumb 55.8597 6.40746
lclavicle 2.22639e-014 4.77083e-015
lhumerus -8.22563 -35.3944 78.9826
lradius 146.35
lwrist 51.9179
lhand 24.5733 12.2203
lfingers 7.12502
lthumb 48.7691 34.0662
rfemur -66.3828 10.9496 -2.13471
rtibia 32.5674
rfoot -5.62126 -17.182
rtoes -19.4037
lfemur -50.4146 -7.13766 -11.8097
ltibia 15.7193
lfoot -8.28799 24.0141
ltoes -10.9433
593
root -1.72793 17.4993 0.994831 -299.693 76.6507 -341.235
lowerback 22.73 -3.98648 2.76143
upperback -1.23546 -3.73222 4.72263
thorax -14.0881 -1.61155 5.10424
lowerneck -4.14252 -6.43404 -7.05937
upperneck -21.4112 -6.55202 12.4718
head -4.98506 -3.29998 5.29105
rclavicle 1.98785e-014 -5.96354e-015
rhumerus 8.93337 34.9028 -67.6259
rradius 146.967
rwrist -50.3109
rhand 32.0401 23.8154
rfingers 7.12502
rthumb 55.5311 6.06801
lclavicle 1.98785e-014 -5.96354e-015
lhumerus -8.17123 -35.4731 77.0913
lradius 146.57
lwrist 51.257
lhand 24.1671 12.5524
lfingers 7.12502
lthumb 48.3954 34.5786
rfemur -66.7824 10.9579 -1.916
rtibia 32.5882
rfoot -5.52403 -16.9314
rtoes -19.8675
lfemur -50.5762 -6.90922 -11.6027
ltibia 15.6025
lfoot -8.26926 24.2032
ltoes -11.0718
594
root -1.72029 17.5012 1.01512 -299.855 76.4988 -341.302
lowerback 23.3957 -3.88326 2.28678
upperback -1.51174 -3.64858 4.92369
thorax -14.76 -1.50279 5.66779
lowerneck -4.39073 -6.40639 -7.24143
upperneck -21.0413 -6.57917 12.1676
head -4.83652 -3.2752 5.20014
rclavicle 9.42239e-014 -4.8901e-014
rhumerus 8.85388 34.9842 -65.5589
rradius 147.261
rwrist -50.3256
rhand 31.8113 23.5382
rfingers 7.12502
rthumb 55.3276 5.63912
lclavicle 9.42239e-014 -4.8901e-014
lhumerus -9.04372 -35.4751 76.22
lradius 146.745
lwrist 50.5207
lhand 24.3545 12.8583
lfingers 7.12502
lthumb 48.5678 34.8017
rfemur -66.6688 10.9875 -1.84288
rtibia 32.5753
rfoot -5.57169 -16.7924
rtoes -20.2847
lfemur -50.3505 -7.05326 -11.5326
ltibia 15.507
lfoot -8.31879 24.5006
ltoes -10.9803
595
root -1.71237 17.5032 1.03808 -299.812 76.3348 -341.175
lowerback 23.1055 -3.96534 2.30759
upperback -1.26097 -3.82089 4.64409
thorax -14.3013 -1.61481 5.33925
lowerneck -4.16953 -6.38667 -7.07995
upperneck -21.4003 -6.49348 12.4196
head -4.98502 -3.26494 5.27634
rclavicle 5.36719e-014 3.26007e-014
rhumerus 9.50357 34.849 -63.7494
rradius 147.33
rwrist -50.0399
rhand 30.9887 23.6719
rfingers 7.12502
rthumb 54.5936 5.24333
lclavicle 5.36719e-014 3.26007e-014
lhumerus -8.66548 -35.2764 73.6264
lradius 146.939
lwrist 50.3762
lhand 24.6978 13.2685
lfingers 7.12502
lthumb 48.8835 35.0582
rfemur -66.5578 11.088 -1.93403
rtibia 32.5273
rfoot -5.62851 -16.779
rtoes -20.5042
lfemur -50.1223 -7.23783 -11.4737
ltibia 15.3703
lfoot -8.39587 24.8164
ltoes -11.063
